<?xml version="1.0" encoding="utf-8"?>
<!-- Generator: Adobe Illustrator 25.4.1, SVG Export Plug-In . SVG Version: 6.00 Build 0)  -->
<svg version="1.1" id="Layer_1" xmlns="http://www.w3.org/2000/svg" xmlns:xlink="http://www.w3.org/1999/xlink" x="0px" y="0px"
	 viewBox="0 0 400 300" style="enable-background:new 0 0 400 300;" xml:space="preserve">
<style type="text/css">
	.st0{opacity:0.45;fill:#E6E6E6;enable-background:new    ;}
	.st1{fill:#FFD200;}
	.st2{fill:#F4A28C;}
	.st3{fill:#24285B;}
	.st4{opacity:8.000000e-02;enable-background:new    ;}
	.st5{fill:#E6E6E6;}
	.st6{opacity:0.43;fill:#E6E6E6;enable-background:new    ;}
	.st7{fill:#C9C9C9;}
	.st8{fill:#FFFFFF;}
	.st9{fill:#F2F2F2;}
	.st10{fill:#046FEC;}
	.st11{fill:#A5A5A5;}
	.st12{opacity:0.44;fill:#A5A5A5;enable-background:new    ;}
	.st13{opacity:0.13;fill:#A5A5A5;enable-background:new    ;}
	.st14{opacity:0.2;fill:#FFFFFF;enable-background:new    ;}
</style>
<ellipse class="st0" cx="210.8" cy="255.2" rx="161.8" ry="24.1"/>
<rect x="58.5" y="91.3" transform="matrix(1 -8.028428e-03 8.028428e-03 1 -1.392 0.5799)" class="st1" width="26" height="164.7"/>
<polygon class="st2" points="57.9,91.4 70.6,53.3 83.9,91.2 "/>
<polygon class="st3" points="64.8,70.6 76.6,70.5 70.6,53.3 "/>
<rect x="58.6" y="91.4" transform="matrix(1 -8.028428e-03 8.028428e-03 1 -1.3926 0.5301)" class="st4" width="13.4" height="164.7"/>
<rect x="294.9" y="238.5" class="st5" width="48.5" height="12.8"/>
<rect x="284.3" y="226" class="st6" width="48.5" height="12.8"/>
<path class="st4" d="M58.6,175.4v16.5c0,0,14.1,1.6,26-6.1v-14.8l-10.2-2L58.6,175.4z"/>
<rect x="153.2" y="63.3" class="st7" width="160.7" height="188"/>
<rect x="179" y="88.7" class="st4" width="125.1" height="150.5"/>
<rect x="171" y="80" class="st8" width="125.1" height="150.5"/>
<path class="st4" d="M158,104.7c0,0,24.2,2.3,30.2,33.8l19.4-26c0,0,11.3-1.4,6.3,9c-3.3,6.8-4.1,26.5-12.7,39.8
	c-17.1,26.3-28.5,55.9-33.6,86.9l-0.4,2.6l-11.8,0.5l3.2-96.1L158,104.7z"/>
<rect x="192.6" y="44.7" class="st9" width="10.6" height="44"/>
<rect x="264" y="44.7" class="st9" width="10.6" height="44"/>
<rect x="254.5" y="103" class="st1" width="26.7" height="26.7"/>
<rect x="258.8" y="107.3" class="st8" width="18.1" height="18.1"/>
<rect x="254.5" y="141.9" class="st1" width="26.7" height="26.7"/>
<rect x="254.5" y="180.9" class="st1" width="26.7" height="26.7"/>
<path class="st10" d="M110.1,116.6C103,132,81.8,162,61.2,165.5v10.8c0,0,36.8-1.9,69.1-34.2c13.5-13.5,13.2-22.8,8.4-29.1
	C131.1,103,115.4,105.2,110.1,116.6z"/>
<path class="st4" d="M110.1,116.6C103,132,81.8,162,61.2,165.5v10.8c0,0,36.8-1.9,69.1-34.2c13.5-13.5,13.2-22.8,8.4-29.1
	C131.1,103,115.4,105.2,110.1,116.6z"/>
<rect x="193.5" y="110.7" class="st11" width="48" height="11.3"/>
<rect x="193.5" y="149.6" class="st12" width="48" height="11.3"/>
<rect x="193.5" y="188.5" class="st13" width="48" height="11.3"/>
<polygon class="st2" points="127.1,91.5 131,103 121.9,108.8 118.6,88.9 "/>
<path class="st2" d="M121.4,77.1c2.8-2.8,7.3-2.7,10.1,0.1c0.7,0.7,1.2,1.6,1.6,2.5c2,5.3,3.9,13.1-2.3,14.4
	c-9.5,2-12.6-10.2-12.6-10.2C118.6,81.4,119.7,79,121.4,77.1z"/>
<path class="st2" d="M121.4,84.8c0,0-2.1-1.7-3,0.7s2.7,3.6,3.8,2.4S121.4,84.8,121.4,84.8z"/>
<path class="st10" d="M111.3,114.4c2.8-6.2,8.1-10.8,14.6-12.7c12.4-3.7,35.1,0.3,42,11.9c9.5,15.8-4.4,66-4.4,66l-41.4,3.3
	C122,182.8,99.1,141.7,111.3,114.4z"/>
<polygon class="st3" points="163.4,179.6 158,250.9 149.4,250.9 141.7,195.5 122.6,182.8 "/>
<polygon class="st3" points="122.6,182.8 110.7,250.9 119.9,250.9 139.9,194.4 "/>
<path class="st4" d="M129.4,100.6c0,0-19.4,62.5,36.6,66.7l-2.6,12.4l-41.4,3.2c0,0-16.2-28.2-14-55.2c0,0,0.3-15.9,11.6-23
	C122.5,102.6,125.9,101.2,129.4,100.6z"/>
<path class="st10" d="M112.8,250.8l-5.6,4.1c-0.5,0.4-0.7,1.2-0.3,1.7c0.2,0.3,0.6,0.5,1,0.5h9.3c0.7,0,1.2-0.6,1.2-1.2v-5.1H112.8z
	"/>
<path class="st10" d="M156.9,250.8l5.2,4.1c0.5,0.4,0.6,1.2,0.2,1.7c-0.2,0.3-0.6,0.5-1,0.5h-6.6c-2,0-3.6-1.6-3.6-3.6l0,0v-2.8
	H156.9z"/>
<path class="st10" d="M146.4,101.3c-4.2,6.8-4.2,15.4,0,22.1c4.5,7.6,17.6,22.5,26.6,32.3c3.5,3.9,9.5,4.2,13.4,0.7
	c0.8-0.7,1.4-1.5,1.9-2.5l19.3-34.1l-6.6-4.2l-17.7,26C183.4,141.7,171.3,101.8,146.4,101.3z"/>
<path class="st14" d="M146.4,101.3c-4.2,6.8-4.2,15.4,0,22.1c4.5,7.6,17.6,22.5,26.6,32.3c3.5,3.9,9.5,4.2,13.4,0.7
	c0.8-0.7,1.4-1.5,1.9-2.5l19.3-34.1l-6.6-4.2l-17.7,26C183.4,141.7,171.3,101.8,146.4,101.3z"/>
<path class="st2" d="M205.4,118.5c0,0,11-4,6.5-10.2s-10.8,7.5-10.8,7.5L205.4,118.5z"/>
<path class="st3" d="M119.3,92.1l-3.3-8.2c-0.7-1.7-0.6-3.7,0.1-5.3c1.3-2.9,3.9-7.5,7.9-10c6.2-4.1,12.2-4.1,11.5,1.3
	s1.9-0.3,4,3.6s0.8,5.1-2.2,5.5s-9,0.2-11.1,4.2S126.7,91.9,119.3,92.1z"/>
<path class="st2" d="M61.2,165.5c0,0-5.7-2.4-7.9,2.9s7.9,7.9,7.9,7.9V165.5z"/>
<rect x="58.9" y="227.6" transform="matrix(1 -8.028428e-03 8.028428e-03 1 -1.9433 0.5861)" class="st3" width="26.3" height="29.6"/>
<rect x="258.8" y="146.2" class="st8" width="18.1" height="18.1"/>
<rect x="258.8" y="185.1" class="st8" width="18.1" height="18.1"/>
</svg>
